<mxfile host="app.diagrams.net" modified="2024-05-30T11:07:01.961Z" agent="Mozilla/5.0 (Macintosh; Intel Mac OS X 10_15_7) AppleWebKit/537.36 (KHTML, like Gecko) Chrome/124.0.0.0 Safari/537.36" etag="HLVqCeLh8kz_5Y_kfWwl" version="24.4.4" type="github" pages="2">
  <diagram name="Page-1" id="3AtgSh851CPeTZQk0uJ3">
    <mxGraphModel dx="954" dy="640" grid="0" gridSize="10" guides="1" tooltips="1" connect="1" arrows="1" fold="1" page="1" pageScale="1" pageWidth="850" pageHeight="1100" background="#726cbc" math="0" shadow="0">
      <root>
        <mxCell id="0" />
        <mxCell id="1" parent="0" />
        <mxCell id="jzucR2UPrX-zS2bCAqGs-7" value="" style="edgeStyle=orthogonalEdgeStyle;rounded=0;orthogonalLoop=1;jettySize=auto;html=1;" edge="1" parent="1" source="jzucR2UPrX-zS2bCAqGs-1" target="jzucR2UPrX-zS2bCAqGs-6">
          <mxGeometry relative="1" as="geometry" />
        </mxCell>
        <mxCell id="jzucR2UPrX-zS2bCAqGs-1" value="Start" style="ellipse;whiteSpace=wrap;html=1;fillColor=#d6654e;" vertex="1" parent="1">
          <mxGeometry x="375" y="370" width="60" height="40" as="geometry" />
        </mxCell>
        <mxCell id="jzucR2UPrX-zS2bCAqGs-10" value="" style="edgeStyle=orthogonalEdgeStyle;rounded=0;orthogonalLoop=1;jettySize=auto;html=1;" edge="1" parent="1" source="jzucR2UPrX-zS2bCAqGs-6" target="jzucR2UPrX-zS2bCAqGs-9">
          <mxGeometry relative="1" as="geometry" />
        </mxCell>
        <mxCell id="jzucR2UPrX-zS2bCAqGs-6" value="Step/process" style="whiteSpace=wrap;html=1;fillColor=#e8654a;" vertex="1" parent="1">
          <mxGeometry x="360" y="450" width="90" height="45" as="geometry" />
        </mxCell>
        <mxCell id="jzucR2UPrX-zS2bCAqGs-8" style="edgeStyle=orthogonalEdgeStyle;rounded=0;orthogonalLoop=1;jettySize=auto;html=1;exitX=0.5;exitY=1;exitDx=0;exitDy=0;" edge="1" parent="1" source="jzucR2UPrX-zS2bCAqGs-6" target="jzucR2UPrX-zS2bCAqGs-6">
          <mxGeometry relative="1" as="geometry" />
        </mxCell>
        <mxCell id="jzucR2UPrX-zS2bCAqGs-16" style="edgeStyle=orthogonalEdgeStyle;rounded=0;orthogonalLoop=1;jettySize=auto;html=1;" edge="1" parent="1" source="jzucR2UPrX-zS2bCAqGs-9" target="jzucR2UPrX-zS2bCAqGs-22">
          <mxGeometry relative="1" as="geometry">
            <mxPoint x="405" y="750" as="targetPoint" />
          </mxGeometry>
        </mxCell>
        <mxCell id="jzucR2UPrX-zS2bCAqGs-18" value="No" style="edgeLabel;html=1;align=center;verticalAlign=middle;resizable=0;points=[];" vertex="1" connectable="0" parent="jzucR2UPrX-zS2bCAqGs-16">
          <mxGeometry x="0.0495" y="3" relative="1" as="geometry">
            <mxPoint as="offset" />
          </mxGeometry>
        </mxCell>
        <mxCell id="jzucR2UPrX-zS2bCAqGs-9" value="Decision" style="rhombus;whiteSpace=wrap;html=1;fillColor=#d6654e;" vertex="1" parent="1">
          <mxGeometry x="365" y="540" width="80" height="80" as="geometry" />
        </mxCell>
        <mxCell id="jzucR2UPrX-zS2bCAqGs-12" value="Yes" style="edgeStyle=none;orthogonalLoop=1;jettySize=auto;html=1;rounded=0;" edge="1" parent="1" target="jzucR2UPrX-zS2bCAqGs-23">
          <mxGeometry width="100" relative="1" as="geometry">
            <mxPoint x="445" y="579.5" as="sourcePoint" />
            <mxPoint x="545" y="579.5" as="targetPoint" />
            <Array as="points" />
          </mxGeometry>
        </mxCell>
        <mxCell id="jzucR2UPrX-zS2bCAqGs-22" value="End" style="ellipse;whiteSpace=wrap;html=1;fillColor=#d6654e;" vertex="1" parent="1">
          <mxGeometry x="370" y="710" width="70" height="46.67" as="geometry" />
        </mxCell>
        <mxCell id="jzucR2UPrX-zS2bCAqGs-23" value="Step/process" style="rounded=0;whiteSpace=wrap;html=1;fillColor=#d6654e;" vertex="1" parent="1">
          <mxGeometry x="545" y="560" width="80" height="40" as="geometry" />
        </mxCell>
      </root>
    </mxGraphModel>
  </diagram>
  <diagram id="TBOgLdGNDl8WOcT8xkVd" name="Page-2">
    <mxGraphModel dx="2585" dy="2264" grid="1" gridSize="10" guides="1" tooltips="1" connect="1" arrows="1" fold="1" page="1" pageScale="1" pageWidth="850" pageHeight="1100" background="#959393" math="0" shadow="0">
      <root>
        <mxCell id="0" />
        <mxCell id="1" parent="0" />
        <mxCell id="plEJZEJDPYLOgwxHWtcL-6" style="edgeStyle=orthogonalEdgeStyle;rounded=0;orthogonalLoop=1;jettySize=auto;html=1;" edge="1" parent="1" source="plEJZEJDPYLOgwxHWtcL-1" target="plEJZEJDPYLOgwxHWtcL-13">
          <mxGeometry relative="1" as="geometry">
            <mxPoint x="80" y="-812" as="targetPoint" />
          </mxGeometry>
        </mxCell>
        <mxCell id="plEJZEJDPYLOgwxHWtcL-23" value="" style="edgeStyle=orthogonalEdgeStyle;rounded=0;orthogonalLoop=1;jettySize=auto;html=1;" edge="1" parent="1" source="plEJZEJDPYLOgwxHWtcL-1" target="plEJZEJDPYLOgwxHWtcL-24">
          <mxGeometry relative="1" as="geometry">
            <mxPoint x="258.9000000000001" y="-792" as="targetPoint" />
            <Array as="points">
              <mxPoint x="259" y="-842" />
            </Array>
          </mxGeometry>
        </mxCell>
        <mxCell id="plEJZEJDPYLOgwxHWtcL-25" style="edgeStyle=orthogonalEdgeStyle;rounded=0;orthogonalLoop=1;jettySize=auto;html=1;" edge="1" parent="1" source="plEJZEJDPYLOgwxHWtcL-1" target="plEJZEJDPYLOgwxHWtcL-26">
          <mxGeometry relative="1" as="geometry">
            <mxPoint x="810" y="-842" as="targetPoint" />
          </mxGeometry>
        </mxCell>
        <mxCell id="plEJZEJDPYLOgwxHWtcL-34" value="" style="edgeStyle=orthogonalEdgeStyle;rounded=0;orthogonalLoop=1;jettySize=auto;html=1;" edge="1" parent="1" source="plEJZEJDPYLOgwxHWtcL-1" target="plEJZEJDPYLOgwxHWtcL-33">
          <mxGeometry relative="1" as="geometry" />
        </mxCell>
        <mxCell id="plEJZEJDPYLOgwxHWtcL-91" style="edgeStyle=orthogonalEdgeStyle;rounded=0;orthogonalLoop=1;jettySize=auto;html=1;exitX=1;exitY=0.5;exitDx=0;exitDy=0;" edge="1" parent="1" source="plEJZEJDPYLOgwxHWtcL-1" target="plEJZEJDPYLOgwxHWtcL-90">
          <mxGeometry relative="1" as="geometry" />
        </mxCell>
        <mxCell id="plEJZEJDPYLOgwxHWtcL-93" style="edgeStyle=orthogonalEdgeStyle;rounded=0;orthogonalLoop=1;jettySize=auto;html=1;exitX=0;exitY=0.5;exitDx=0;exitDy=0;entryX=0.5;entryY=0;entryDx=0;entryDy=0;" edge="1" parent="1" source="plEJZEJDPYLOgwxHWtcL-1" target="plEJZEJDPYLOgwxHWtcL-92">
          <mxGeometry relative="1" as="geometry" />
        </mxCell>
        <mxCell id="plEJZEJDPYLOgwxHWtcL-1" value="Home" style="ellipse;whiteSpace=wrap;html=1;" vertex="1" parent="1">
          <mxGeometry x="382" y="-872" width="86.25" height="60" as="geometry" />
        </mxCell>
        <mxCell id="plEJZEJDPYLOgwxHWtcL-13" value="Create account" style="rounded=0;whiteSpace=wrap;html=1;" vertex="1" parent="1">
          <mxGeometry x="30" y="-782" width="100" height="50" as="geometry" />
        </mxCell>
        <mxCell id="plEJZEJDPYLOgwxHWtcL-37" value="" style="edgeStyle=orthogonalEdgeStyle;rounded=0;orthogonalLoop=1;jettySize=auto;html=1;" edge="1" parent="1" source="plEJZEJDPYLOgwxHWtcL-24" target="plEJZEJDPYLOgwxHWtcL-36">
          <mxGeometry relative="1" as="geometry" />
        </mxCell>
        <mxCell id="plEJZEJDPYLOgwxHWtcL-24" value="Search" style="rounded=0;whiteSpace=wrap;html=1;" vertex="1" parent="1">
          <mxGeometry x="220" y="-782" width="100" height="50" as="geometry" />
        </mxCell>
        <mxCell id="plEJZEJDPYLOgwxHWtcL-26" value="Cart" style="rounded=0;whiteSpace=wrap;html=1;" vertex="1" parent="1">
          <mxGeometry x="760" y="-782" width="100" height="50" as="geometry" />
        </mxCell>
        <mxCell id="plEJZEJDPYLOgwxHWtcL-38" style="edgeStyle=orthogonalEdgeStyle;rounded=0;orthogonalLoop=1;jettySize=auto;html=1;exitX=0.5;exitY=1;exitDx=0;exitDy=0;entryX=1;entryY=0.5;entryDx=0;entryDy=0;" edge="1" parent="1" source="plEJZEJDPYLOgwxHWtcL-33" target="plEJZEJDPYLOgwxHWtcL-36">
          <mxGeometry relative="1" as="geometry" />
        </mxCell>
        <mxCell id="plEJZEJDPYLOgwxHWtcL-33" value="Categories" style="whiteSpace=wrap;html=1;" vertex="1" parent="1">
          <mxGeometry x="580" y="-782" width="100" height="50" as="geometry" />
        </mxCell>
        <mxCell id="plEJZEJDPYLOgwxHWtcL-40" value="" style="edgeStyle=orthogonalEdgeStyle;rounded=0;orthogonalLoop=1;jettySize=auto;html=1;" edge="1" parent="1" source="plEJZEJDPYLOgwxHWtcL-36" target="plEJZEJDPYLOgwxHWtcL-39">
          <mxGeometry relative="1" as="geometry" />
        </mxCell>
        <mxCell id="plEJZEJDPYLOgwxHWtcL-36" value="Product" style="whiteSpace=wrap;html=1;rounded=0;" vertex="1" parent="1">
          <mxGeometry x="225" y="-657" width="90" height="45" as="geometry" />
        </mxCell>
        <mxCell id="plEJZEJDPYLOgwxHWtcL-42" value="" style="edgeStyle=orthogonalEdgeStyle;rounded=0;orthogonalLoop=1;jettySize=auto;html=1;" edge="1" parent="1" source="plEJZEJDPYLOgwxHWtcL-39" target="plEJZEJDPYLOgwxHWtcL-41">
          <mxGeometry relative="1" as="geometry" />
        </mxCell>
        <mxCell id="plEJZEJDPYLOgwxHWtcL-44" value="" style="edgeStyle=orthogonalEdgeStyle;rounded=0;orthogonalLoop=1;jettySize=auto;html=1;" edge="1" parent="1" source="plEJZEJDPYLOgwxHWtcL-39" target="plEJZEJDPYLOgwxHWtcL-43">
          <mxGeometry relative="1" as="geometry" />
        </mxCell>
        <mxCell id="plEJZEJDPYLOgwxHWtcL-39" value="Add to Cart" style="whiteSpace=wrap;html=1;rounded=0;" vertex="1" parent="1">
          <mxGeometry x="222.5" y="-533.25" width="95" height="47.5" as="geometry" />
        </mxCell>
        <mxCell id="plEJZEJDPYLOgwxHWtcL-41" value="Express checkout" style="whiteSpace=wrap;html=1;rounded=0;" vertex="1" parent="1">
          <mxGeometry x="440" y="-538.25" width="115" height="57.5" as="geometry" />
        </mxCell>
        <mxCell id="plEJZEJDPYLOgwxHWtcL-45" style="edgeStyle=orthogonalEdgeStyle;rounded=0;orthogonalLoop=1;jettySize=auto;html=1;exitX=0;exitY=0.5;exitDx=0;exitDy=0;entryX=0;entryY=0.5;entryDx=0;entryDy=0;" edge="1" parent="1" source="plEJZEJDPYLOgwxHWtcL-43" target="plEJZEJDPYLOgwxHWtcL-36">
          <mxGeometry relative="1" as="geometry" />
        </mxCell>
        <mxCell id="plEJZEJDPYLOgwxHWtcL-46" value="Yes" style="edgeLabel;html=1;align=center;verticalAlign=middle;resizable=0;points=[];" vertex="1" connectable="0" parent="plEJZEJDPYLOgwxHWtcL-45">
          <mxGeometry x="-0.0603" y="-1" relative="1" as="geometry">
            <mxPoint as="offset" />
          </mxGeometry>
        </mxCell>
        <mxCell id="plEJZEJDPYLOgwxHWtcL-48" value="" style="edgeStyle=orthogonalEdgeStyle;rounded=0;orthogonalLoop=1;jettySize=auto;html=1;" edge="1" parent="1" source="plEJZEJDPYLOgwxHWtcL-43" target="plEJZEJDPYLOgwxHWtcL-47">
          <mxGeometry relative="1" as="geometry" />
        </mxCell>
        <mxCell id="plEJZEJDPYLOgwxHWtcL-49" value="No" style="edgeLabel;html=1;align=center;verticalAlign=middle;resizable=0;points=[];" vertex="1" connectable="0" parent="plEJZEJDPYLOgwxHWtcL-48">
          <mxGeometry x="0.007" y="1" relative="1" as="geometry">
            <mxPoint as="offset" />
          </mxGeometry>
        </mxCell>
        <mxCell id="plEJZEJDPYLOgwxHWtcL-43" value="&lt;font style=&quot;font-size: 10px;&quot;&gt;Do you want to continue shoppiong?&lt;/font&gt;" style="rhombus;whiteSpace=wrap;html=1;rounded=0;" vertex="1" parent="1">
          <mxGeometry x="206.25" y="-409.5" width="127.5" height="127.5" as="geometry" />
        </mxCell>
        <mxCell id="plEJZEJDPYLOgwxHWtcL-51" value="" style="edgeStyle=orthogonalEdgeStyle;rounded=0;orthogonalLoop=1;jettySize=auto;html=1;" edge="1" parent="1" source="plEJZEJDPYLOgwxHWtcL-47" target="plEJZEJDPYLOgwxHWtcL-52">
          <mxGeometry relative="1" as="geometry">
            <mxPoint x="501.29999999999995" y="-221.9949999999999" as="targetPoint" />
          </mxGeometry>
        </mxCell>
        <mxCell id="plEJZEJDPYLOgwxHWtcL-47" value="Checkout" style="whiteSpace=wrap;html=1;rounded=0;" vertex="1" parent="1">
          <mxGeometry x="447.5" y="-372.63" width="107.5" height="53.75" as="geometry" />
        </mxCell>
        <mxCell id="plEJZEJDPYLOgwxHWtcL-54" value="" style="edgeStyle=orthogonalEdgeStyle;rounded=0;orthogonalLoop=1;jettySize=auto;html=1;" edge="1" parent="1" source="plEJZEJDPYLOgwxHWtcL-52" target="plEJZEJDPYLOgwxHWtcL-53">
          <mxGeometry relative="1" as="geometry" />
        </mxCell>
        <mxCell id="plEJZEJDPYLOgwxHWtcL-55" value="Yes" style="edgeLabel;html=1;align=center;verticalAlign=middle;resizable=0;points=[];" vertex="1" connectable="0" parent="plEJZEJDPYLOgwxHWtcL-54">
          <mxGeometry x="-0.1597" y="-1" relative="1" as="geometry">
            <mxPoint as="offset" />
          </mxGeometry>
        </mxCell>
        <mxCell id="plEJZEJDPYLOgwxHWtcL-60" value="" style="edgeStyle=orthogonalEdgeStyle;rounded=0;orthogonalLoop=1;jettySize=auto;html=1;" edge="1" parent="1" source="plEJZEJDPYLOgwxHWtcL-52" target="plEJZEJDPYLOgwxHWtcL-59">
          <mxGeometry relative="1" as="geometry" />
        </mxCell>
        <mxCell id="plEJZEJDPYLOgwxHWtcL-52" value="Do you have an account?" style="rhombus;whiteSpace=wrap;html=1;" vertex="1" parent="1">
          <mxGeometry x="446.25" y="-222" width="110" height="110" as="geometry" />
        </mxCell>
        <mxCell id="plEJZEJDPYLOgwxHWtcL-53" value="Delivery Info" style="whiteSpace=wrap;html=1;" vertex="1" parent="1">
          <mxGeometry x="658" y="-192.5" width="102" height="51" as="geometry" />
        </mxCell>
        <mxCell id="plEJZEJDPYLOgwxHWtcL-61" style="edgeStyle=orthogonalEdgeStyle;rounded=0;orthogonalLoop=1;jettySize=auto;html=1;exitX=0;exitY=0.5;exitDx=0;exitDy=0;" edge="1" parent="1" source="plEJZEJDPYLOgwxHWtcL-59">
          <mxGeometry relative="1" as="geometry">
            <mxPoint x="80" y="-726" as="targetPoint" />
          </mxGeometry>
        </mxCell>
        <mxCell id="plEJZEJDPYLOgwxHWtcL-62" value="No" style="edgeLabel;html=1;align=center;verticalAlign=middle;resizable=0;points=[];" vertex="1" connectable="0" parent="plEJZEJDPYLOgwxHWtcL-61">
          <mxGeometry x="0.3233" y="-2" relative="1" as="geometry">
            <mxPoint as="offset" />
          </mxGeometry>
        </mxCell>
        <mxCell id="plEJZEJDPYLOgwxHWtcL-68" style="edgeStyle=orthogonalEdgeStyle;rounded=0;orthogonalLoop=1;jettySize=auto;html=1;exitX=1;exitY=0.5;exitDx=0;exitDy=0;" edge="1" parent="1" source="plEJZEJDPYLOgwxHWtcL-59">
          <mxGeometry relative="1" as="geometry">
            <mxPoint x="710" y="-136" as="targetPoint" />
          </mxGeometry>
        </mxCell>
        <mxCell id="plEJZEJDPYLOgwxHWtcL-69" value="Yes" style="edgeLabel;html=1;align=center;verticalAlign=middle;resizable=0;points=[];" vertex="1" connectable="0" parent="plEJZEJDPYLOgwxHWtcL-68">
          <mxGeometry x="-0.5498" y="-3" relative="1" as="geometry">
            <mxPoint as="offset" />
          </mxGeometry>
        </mxCell>
        <mxCell id="plEJZEJDPYLOgwxHWtcL-59" value="Guest Checkout?" style="rhombus;whiteSpace=wrap;html=1;" vertex="1" parent="1">
          <mxGeometry x="440.75" y="4" width="121" height="121" as="geometry" />
        </mxCell>
        <mxCell id="plEJZEJDPYLOgwxHWtcL-83" value="" style="edgeStyle=orthogonalEdgeStyle;rounded=0;orthogonalLoop=1;jettySize=auto;html=1;entryX=1;entryY=0.5;entryDx=0;entryDy=0;exitX=0.5;exitY=1;exitDx=0;exitDy=0;" edge="1" parent="1" source="plEJZEJDPYLOgwxHWtcL-75" target="plEJZEJDPYLOgwxHWtcL-81">
          <mxGeometry relative="1" as="geometry">
            <mxPoint x="750" y="339" as="targetPoint" />
          </mxGeometry>
        </mxCell>
        <mxCell id="plEJZEJDPYLOgwxHWtcL-75" value="Payment page" style="rounded=0;whiteSpace=wrap;html=1;" vertex="1" parent="1">
          <mxGeometry x="700" y="134" width="90" height="45" as="geometry" />
        </mxCell>
        <mxCell id="plEJZEJDPYLOgwxHWtcL-77" style="edgeStyle=orthogonalEdgeStyle;rounded=0;orthogonalLoop=1;jettySize=auto;html=1;exitX=0.75;exitY=1;exitDx=0;exitDy=0;entryX=0.389;entryY=-0.02;entryDx=0;entryDy=0;entryPerimeter=0;" edge="1" parent="1" source="plEJZEJDPYLOgwxHWtcL-53" target="plEJZEJDPYLOgwxHWtcL-75">
          <mxGeometry relative="1" as="geometry" />
        </mxCell>
        <mxCell id="plEJZEJDPYLOgwxHWtcL-85" value="" style="edgeStyle=orthogonalEdgeStyle;rounded=0;orthogonalLoop=1;jettySize=auto;html=1;" edge="1" parent="1" source="plEJZEJDPYLOgwxHWtcL-81" target="plEJZEJDPYLOgwxHWtcL-86">
          <mxGeometry relative="1" as="geometry">
            <mxPoint x="501.25" y="537.75" as="targetPoint" />
          </mxGeometry>
        </mxCell>
        <mxCell id="plEJZEJDPYLOgwxHWtcL-89" value="No" style="edgeLabel;html=1;align=center;verticalAlign=middle;resizable=0;points=[];" vertex="1" connectable="0" parent="plEJZEJDPYLOgwxHWtcL-85">
          <mxGeometry x="0.0118" y="1" relative="1" as="geometry">
            <mxPoint as="offset" />
          </mxGeometry>
        </mxCell>
        <mxCell id="plEJZEJDPYLOgwxHWtcL-87" style="edgeStyle=orthogonalEdgeStyle;rounded=0;orthogonalLoop=1;jettySize=auto;html=1;exitX=0;exitY=0.5;exitDx=0;exitDy=0;entryX=0;entryY=0.75;entryDx=0;entryDy=0;" edge="1" parent="1" source="plEJZEJDPYLOgwxHWtcL-81" target="plEJZEJDPYLOgwxHWtcL-36">
          <mxGeometry relative="1" as="geometry" />
        </mxCell>
        <mxCell id="plEJZEJDPYLOgwxHWtcL-88" value="Yes" style="edgeLabel;html=1;align=center;verticalAlign=middle;resizable=0;points=[];" vertex="1" connectable="0" parent="plEJZEJDPYLOgwxHWtcL-87">
          <mxGeometry x="-0.8094" y="1" relative="1" as="geometry">
            <mxPoint as="offset" />
          </mxGeometry>
        </mxCell>
        <mxCell id="plEJZEJDPYLOgwxHWtcL-81" value="&lt;font style=&quot;font-size: 10px;&quot;&gt;Do you want to shop for more items?&lt;/font&gt;" style="rhombus;whiteSpace=wrap;html=1;" vertex="1" parent="1">
          <mxGeometry x="435" y="299" width="132.5" height="132.5" as="geometry" />
        </mxCell>
        <mxCell id="plEJZEJDPYLOgwxHWtcL-86" value="Home" style="ellipse;whiteSpace=wrap;html=1;" vertex="1" parent="1">
          <mxGeometry x="455.31" y="559" width="91.88" height="61.25" as="geometry" />
        </mxCell>
        <mxCell id="plEJZEJDPYLOgwxHWtcL-95" value="" style="edgeStyle=orthogonalEdgeStyle;rounded=0;orthogonalLoop=1;jettySize=auto;html=1;" edge="1" parent="1" source="plEJZEJDPYLOgwxHWtcL-90" target="plEJZEJDPYLOgwxHWtcL-94">
          <mxGeometry relative="1" as="geometry" />
        </mxCell>
        <mxCell id="plEJZEJDPYLOgwxHWtcL-97" style="edgeStyle=orthogonalEdgeStyle;rounded=0;orthogonalLoop=1;jettySize=auto;html=1;exitX=0.5;exitY=1;exitDx=0;exitDy=0;entryX=0.5;entryY=0;entryDx=0;entryDy=0;" edge="1" parent="1" source="plEJZEJDPYLOgwxHWtcL-90" target="plEJZEJDPYLOgwxHWtcL-96">
          <mxGeometry relative="1" as="geometry" />
        </mxCell>
        <mxCell id="plEJZEJDPYLOgwxHWtcL-90" value="Help" style="rounded=0;whiteSpace=wrap;html=1;" vertex="1" parent="1">
          <mxGeometry x="960" y="-791" width="100" height="50" as="geometry" />
        </mxCell>
        <mxCell id="plEJZEJDPYLOgwxHWtcL-99" value="" style="edgeStyle=orthogonalEdgeStyle;rounded=0;orthogonalLoop=1;jettySize=auto;html=1;" edge="1" parent="1" source="plEJZEJDPYLOgwxHWtcL-92" target="plEJZEJDPYLOgwxHWtcL-98">
          <mxGeometry relative="1" as="geometry" />
        </mxCell>
        <mxCell id="plEJZEJDPYLOgwxHWtcL-101" style="edgeStyle=orthogonalEdgeStyle;rounded=0;orthogonalLoop=1;jettySize=auto;html=1;exitX=0.5;exitY=1;exitDx=0;exitDy=0;entryX=0.5;entryY=0;entryDx=0;entryDy=0;" edge="1" parent="1" source="plEJZEJDPYLOgwxHWtcL-92" target="plEJZEJDPYLOgwxHWtcL-100">
          <mxGeometry relative="1" as="geometry" />
        </mxCell>
        <mxCell id="plEJZEJDPYLOgwxHWtcL-92" value="Seller&#39;s center" style="rounded=0;whiteSpace=wrap;html=1;" vertex="1" parent="1">
          <mxGeometry x="-170" y="-782" width="100" height="50" as="geometry" />
        </mxCell>
        <mxCell id="plEJZEJDPYLOgwxHWtcL-94" value="FAQ" style="whiteSpace=wrap;html=1;rounded=0;" vertex="1" parent="1">
          <mxGeometry x="860" y="-581" width="120" height="60" as="geometry" />
        </mxCell>
        <mxCell id="plEJZEJDPYLOgwxHWtcL-96" value="Contact Us" style="whiteSpace=wrap;html=1;rounded=0;" vertex="1" parent="1">
          <mxGeometry x="1080" y="-581" width="120" height="60" as="geometry" />
        </mxCell>
        <mxCell id="plEJZEJDPYLOgwxHWtcL-98" value="Create your store" style="whiteSpace=wrap;html=1;rounded=0;" vertex="1" parent="1">
          <mxGeometry x="-290" y="-533.25" width="120" height="60" as="geometry" />
        </mxCell>
        <mxCell id="plEJZEJDPYLOgwxHWtcL-100" value="Log into your store" style="whiteSpace=wrap;html=1;rounded=0;" vertex="1" parent="1">
          <mxGeometry x="-80" y="-533.25" width="120" height="60" as="geometry" />
        </mxCell>
      </root>
    </mxGraphModel>
  </diagram>
</mxfile>
